<svg width="146" height="13" viewBox="0 0 146 13" fill="none" xmlns="http://www.w3.org/2000/svg">
<path d="M5.97263 2.24054C3.30163 2.24054 2.35262 3.36453 2.21262 5.54053H15.1946V7.27856H2.21262C2.35262 9.43856 3.30163 10.5455 5.97263 10.5455H15.4436V12.4066H5.97263C1.79063 12.4066 0.244629 10.3875 0.244629 6.40051C0.244629 2.41351 1.79063 0.394531 5.97263 0.394531H15.4436V2.24054H5.97263Z" fill="#333333"/>
<path d="M21.7319 0.400391V7.56537C21.7319 9.77837 22.7159 10.5154 25.5099 10.5154H33.4319V12.4154H25.5069C21.5889 12.4154 19.7969 11.0284 19.7969 7.56842V0.403381L21.7319 0.400391Z" fill="#333333"/>
<path d="M42.0049 2.24054C39.3339 2.24054 38.3848 3.36453 38.2448 5.54053H51.2299V7.27856H38.2448C38.3848 9.43856 39.3339 10.5455 42.0049 10.5455H51.4759V12.4066H42.0049C37.8229 12.4066 36.2769 10.3875 36.2769 6.40051C36.2769 2.41351 37.8229 0.394531 42.0049 0.394531H51.4759V2.24054H42.0049Z" fill="#333333"/>
<path d="M70.447 2.27936H60.976C57.901 2.27936 57.234 3.67931 57.234 6.40631C57.234 9.13331 57.919 10.5153 60.976 10.5153H70.447V12.4153H60.976C56.812 12.4153 55.248 10.4153 55.248 6.40833C55.248 2.42133 56.794 0.402344 60.976 0.402344H70.447V2.27936Z" fill="#333333"/>
<path d="M79.8977 12.4124V2.1554H73.6978V0.400391H88.0367V2.15643H81.8368V12.4134L79.8977 12.4124Z" fill="#333333"/>
<path d="M91.333 0.400391H101.701C104.635 0.400391 106.252 1.84041 106.252 4.07141C106.286 4.83167 106.043 5.57848 105.568 6.17297C105.093 6.76747 104.418 7.16918 103.669 7.30341C104.32 7.42712 104.906 7.77683 105.324 8.29083C105.742 8.80483 105.965 9.45 105.953 10.1124V12.4124H103.953V10.0764C103.953 9.11142 103.338 8.17639 101.633 8.17639H93.269V12.4084H91.336L91.333 0.400391ZM101.841 6.45941C102.147 6.49418 102.456 6.46399 102.749 6.37085C103.042 6.27771 103.312 6.12372 103.542 5.91895C103.771 5.71417 103.955 5.46321 104.08 5.18256C104.206 4.90191 104.271 4.59791 104.271 4.29041C104.271 3.9829 104.206 3.67884 104.08 3.39819C103.955 3.11754 103.771 2.86664 103.542 2.66187C103.312 2.45709 103.042 2.3031 102.749 2.20996C102.456 2.11682 102.147 2.08663 101.841 2.1214H93.266V6.45941H101.841Z" fill="#333333"/>
<path d="M109.556 0.400391H111.489V6.67041C111.489 9.83141 112.666 10.6924 116.901 10.6924C121.154 10.6924 122.313 9.83241 122.313 6.67041V0.400391H124.264V6.67041C124.264 10.9704 122.279 12.5894 116.902 12.5894C111.595 12.5894 109.557 11.0084 109.557 6.67041L109.556 0.400391Z" fill="#333333"/>
<path d="M130.097 2.50739V12.4124H128.197V0.400397H130.059C130.324 0.399619 130.585 0.46508 130.818 0.590827C131.051 0.716574 131.249 0.898649 131.394 1.12043L137.087 7.92042L142.798 1.12043C142.944 0.89966 143.142 0.718399 143.375 0.59278C143.608 0.467161 143.868 0.40105 144.133 0.400397H145.996V12.4124H144.096V2.50739L137.876 9.83143H136.312L130.097 2.50739Z" fill="#333333"/>
</svg>
